<?xml version="1.0" encoding="UTF-8"?>
<svg width="408px" height="84px" viewBox="0 0 408 84" version="1.1" xmlns="http://www.w3.org/2000/svg" xmlns:xlink="http://www.w3.org/1999/xlink">
    <!-- Generator: Sketch 62 (91390) - https://sketch.com -->
    <title>Group 21</title>
    <desc>Created with Sketch.</desc>
    <defs>
        <polygon id="path-1" points="0.876448157 0.035 22.5455587 0.035 22.5455587 19.9147 0.876448157 19.9147"></polygon>
        <polygon id="path-3" points="0.854193612 0.035 14.5257022 0.035 14.5257022 25.0629 0.854193612 25.0629"></polygon>
        <polygon id="path-5" points="0 84.9651 407.404541 84.9651 407.404541 1.0001 0 1.0001"></polygon>
    </defs>
    <g id="GW_Media-Room" stroke="none" stroke-width="1" fill="none" fill-rule="evenodd">
        <g id="GW_Web_MediaRoom_1440px" transform="translate(-516.000000, -1035.000000)">
            <g id="Group-21" transform="translate(516.000000, 1034.000000)">
                <g id="Group-3" transform="translate(140.343980, 0.965100)">
                    <mask id="mask-2" fill="white">
                        <use xlink:href="#path-1"></use>
                    </mask>
                    <g id="Clip-2"></g>
                    <path d="M0.876448157,11.9017 L5.61706732,19.9147 C6.02807469,17.8087 6.74783882,15.5517 8.25252678,12.8777 C8.39287076,12.6287 8.74272826,11.9847 8.87405012,11.7237 C9.5717602,10.4717 10.5040452,9.1027 11.6979715,7.7207 C11.7160157,7.6997 11.73406,7.6797 11.7521042,7.6597 C11.9656275,7.4137 12.1871705,7.1687 12.4177356,6.9227 C12.4648511,6.8727 12.512969,6.8227 12.561087,6.7727 C12.7675931,6.5557 12.980114,6.3397 13.2006545,6.1237 C13.2708265,6.0547 13.3430034,5.9857 13.4151803,5.9177 C13.6216865,5.7197 13.8342074,5.5227 14.052743,5.3267 C14.1399568,5.2477 14.2291754,5.1687 14.3193966,5.0897 C14.5329199,4.9027 14.752458,4.7187 14.9760059,4.5347 C15.0782565,4.4507 15.1795047,4.3677 15.2827577,4.2847 C15.5083106,4.1057 15.7398781,3.9277 15.976458,3.7517 C16.0877307,3.6687 16.1969985,3.5857 16.3102762,3.5027 C16.5518683,3.3287 16.8014801,3.1567 17.0530968,2.9857 C17.1713867,2.9057 17.2876717,2.8247 17.4079666,2.7457 C17.6706103,2.5737 17.9412737,2.4057 18.2149445,2.2377 C18.3362418,2.1647 18.4535292,2.0887 18.5768314,2.0167 C18.8665415,1.8447 19.1672786,1.6787 19.4700206,1.5127 C19.5873081,1.4487 19.7005857,1.3817 19.8208806,1.3187 C20.1536963,1.1417 20.4985415,0.9717 20.8473966,0.8027 C20.9466398,0.7547 21.0418732,0.7037 21.1431214,0.6567 C21.5982369,0.4427 22.0643794,0.2347 22.5455587,0.0347 C14.7965661,1.2357 4.38805504,5.6087 0.876448157,11.9017" id="Fill-1" fill="#00B2D2" mask="url(#mask-2)"></path>
                </g>
                <path d="M145.322282,25.921 C145.49671,24.246 145.624022,22.614 145.96185,20.88 L141.220228,12.867 C141.032769,13.207 140.856336,13.547 140.70697,13.898 C138.950665,18.048 138.810321,20.725 139.931068,25.147 C140.454351,27.211 141.150056,30.46 139.407786,32.251 C139.407786,32.251 144.800002,30.943 145.322282,25.921" id="Fill-4" fill="#005AAE"></path>
                <g id="Group-8" transform="translate(148.363636, 0.965100)">
                    <mask id="mask-4" fill="white">
                        <use xlink:href="#path-3"></use>
                    </mask>
                    <g id="Clip-7"></g>
                    <path d="M12.82754,0.8029 C12.478685,0.9719 12.1348423,1.1419 11.8020265,1.3179 C11.6807292,1.3819 11.5674516,1.4489 11.4501641,1.5129 C11.1474221,1.6789 10.846685,1.8449 10.5569749,2.0159 C10.4336727,2.0889 10.3163853,2.1649 10.195088,2.2379 C9.92241966,2.4059 9.65075381,2.5739 9.38811007,2.7459 C9.26781523,2.8249 9.15153022,2.9059 9.03324029,2.9859 C8.78162359,3.1569 8.53201179,3.3289 8.29142211,3.5029 C8.17714201,3.5859 8.0678742,3.6689 7.95660147,3.7519 C7.72002162,3.9279 7.48845405,4.1049 7.26290123,4.2849 C7.15964816,4.3679 7.0584,4.4509 6.95715184,4.5339 C6.73260147,4.7189 6.51306339,4.9029 6.29954005,5.0899 C6.20931892,5.1689 6.1211027,5.2479 6.03288649,5.3269 C5.81435086,5.5229 5.60182998,5.7199 5.39532383,5.9179 C5.32314693,5.9859 5.25097002,6.0549 5.18079803,6.1239 C4.96025749,6.3399 4.74773661,6.5559 4.54123047,6.7729 C4.49411499,6.8229 4.44499459,6.8729 4.39787912,6.9229 C4.167314,7.1689 3.94577101,7.4139 3.73224767,7.6589 C3.71420344,7.6799 3.69615921,7.6999 3.67811499,7.7209 C2.48519115,9.1029 1.55190369,10.4719 0.854193612,11.7239 L8.73851794,25.0629 C10.2993435,22.8959 11.0692305,20.1049 11.0321396,16.9169 C10.9990585,14.0909 10.8567096,11.0919 11.2135843,8.2489 C11.592513,5.2239 12.7744098,2.3989 14.5257022,0.0349 C14.0445229,0.2339 13.5783803,0.4419 13.1232649,0.6569 C13.0220167,0.7039 12.9277857,0.7549 12.82754,0.8029" id="Fill-6" fill="#EBEB00" mask="url(#mask-4)"></path>
                </g>
                <path d="M148.596908,13.8432 C147.09222,16.5172 146.371454,18.7742 145.961449,20.8802 C145.623621,22.6142 145.496309,24.2462 145.321881,25.9212 C144.799601,30.9432 139.407385,32.2512 139.407385,32.2512 C146.293262,32.8962 152.710992,31.0372 156.028122,27.3322 C156.420083,26.9292 156.775955,26.4892 157.101753,26.0282 L149.217429,12.6892 C149.086107,12.9502 148.737252,13.5942 148.596908,13.8432" id="Fill-9" fill="#4F9631"></path>
                <path d="M197.601718,77.1818 C184.48958,77.1818 173.82444,66.5458 173.82444,53.4648 C173.82444,40.3958 184.48958,29.7548 197.601718,29.7548 C210.708843,29.7548 221.367969,40.3958 221.367969,53.4648 C221.367969,66.5458 210.708843,77.1818 197.601718,77.1818 L197.601718,77.1818 Z M221.367969,32.7658 C215.398337,25.9468 206.775202,21.9778 197.601718,21.9778 C180.201069,21.9778 166.033344,36.0998 166.033344,53.4648 C166.033344,70.8368 180.201069,84.9648 197.601718,84.9648 C214.997354,84.9648 229.170091,70.8368 229.170091,53.4648 L229.170091,6.9018 L221.367969,6.9018 L221.367969,32.7658 Z" id="Fill-11" fill="#4D9730"></path>
                <mask id="mask-6" fill="white">
                    <use xlink:href="#path-5"></use>
                </mask>
                <g id="Clip-14"></g>
                <polygon id="Fill-13" fill="#4D9730" mask="url(#mask-6)" points="142.764914 84.9651 150.421681 84.9651 150.421681 37.0931 142.764914 37.0931"></polygon>
                <path d="M94.8537848,52.799 L94.8537848,84.965 L102.504537,84.965 L102.504537,52.799 C102.504537,39.975 112.960163,29.542 125.819682,29.542 L127.150944,29.542 L127.150944,21.908 L125.819682,21.908 C108.744831,21.908 94.8537848,35.767 94.8537848,52.799" id="Fill-15" fill="#4D9730" mask="url(#mask-6)"></path>
                <path d="M305.380582,65.1979 C305.380582,71.8799 299.930223,77.3129 293.219776,77.3129 C286.522361,77.3129 281.055963,71.8799 281.055963,65.1979 L281.055963,21.9079 L273.406213,21.9079 L273.388169,65.1979 C273.388169,71.8799 267.940818,77.3129 261.236385,77.3129 C254.532955,77.3129 249.078587,71.8799 249.078587,65.1979 L249.078587,21.9079 L241.426832,21.9079 L241.426832,65.1979 C241.426832,76.0929 250.309604,84.9649 261.236385,84.9649 C267.566901,84.9649 273.517486,81.8979 277.230587,76.8329 C280.934665,81.8979 286.89728,84.9649 293.219776,84.9649 C304.14756,84.9649 313.040356,76.0929 313.040356,65.1979 L313.040356,21.9079 L305.384592,21.9079 L305.380582,65.1979 Z" id="Fill-16" fill="#4D9730" mask="url(#mask-6)"></path>
                <path d="M352.844515,71.424 C352.844515,69.308 353.961252,67.416 355.684476,66.404 L399.957989,47.462 C404.539218,45.133 407.40424,40.524 407.40424,35.449 C407.40424,28.019 401.331355,21.939 393.86706,21.908 L345.458412,21.908 L345.458412,29.542 L393.82997,29.542 C397.08996,29.542 399.747473,32.193 399.747473,35.449 C399.747473,37.549 398.594648,39.499 396.864407,40.487 L352.628987,59.391 C348.042746,61.741 345.192761,66.344 345.192761,71.424 C345.192761,78.412 350.555906,84.195 357.393665,84.885 L357.393665,84.965 L407.123552,84.965 L407.123552,77.328 L358.767031,77.328 C355.497016,77.328 352.844515,74.676 352.844515,71.424" id="Fill-17" fill="#4D9730" mask="url(#mask-6)"></path>
                <polygon id="Fill-18" fill="#4D9730" mask="url(#mask-6)" points="37.4718428 50.0631 82.6014545 50.0631 82.6014545 42.4351 37.4718428 42.4351"></polygon>
                <path d="M38.7984943,77.6295 C21.4589956,77.6295 7.34841081,63.5565 7.34841081,46.2605 C7.34841081,28.9445 21.4589956,14.8695 38.7984943,14.8695 C51.9346909,14.8695 63.3797425,22.8825 68.0411676,34.7935 L75.8513101,34.7935 C70.8991725,18.8005 55.8863764,7.5475 38.7984943,7.5475 C17.4050595,7.5475 0.000400982801,24.9075 0.000400982801,46.2605 C0.000400982801,67.6015 17.4050595,84.9645 38.7984943,84.9645 C55.8863764,84.9645 70.8991725,73.7065 75.8653445,57.7045 L68.0411676,57.7045 C63.3877622,69.6245 51.9397032,77.6295 38.7984943,77.6295" id="Fill-19" fill="#4D9730" mask="url(#mask-6)"></path>
                <polygon id="Fill-20" fill="#4D9730" mask="url(#mask-6)" points="325.288275 84.9651 332.944039 84.9651 332.944039 21.9081 325.288275 21.9081"></polygon>
            </g>
        </g>
    </g>
</svg>